<?xml version="1.0" encoding="UTF-8" standalone="no"?>
<!DOCTYPE svg PUBLIC "-//W3C//DTD SVG 1.1//EN" "http://www.w3.org/Graphics/SVG/1.1/DTD/svg11.dtd">
<svg width="100%" height="100%" viewBox="0 0 30 30" version="1.1" xmlns="http://www.w3.org/2000/svg" xmlns:xlink="http://www.w3.org/1999/xlink" xml:space="preserve" xmlns:serif="http://www.serif.com/" style="fill-rule:evenodd;clip-rule:evenodd;stroke-linecap:round;stroke-linejoin:round;stroke-miterlimit:2;">
    <g transform="matrix(1,0,0,1,-100,-50)">
        <g id="Abpumpen" transform="matrix(1,0,0,1,-714.333,50)">
            <rect x="814.333" y="0" width="30" height="30" style="fill:none;"/>
            <g transform="matrix(1.06059,0,0,1.09152,-50.2389,-4.64744)">
                <g transform="matrix(1,0,0,1,564.342,-2)">
                    <path d="M252,10C251.799,20.07 252.741,20.245 257.615,20.039" style="fill:none;stroke:rgb(255,184,0);stroke-width:1.94px;"/>
                </g>
                <g transform="matrix(-1,0,0,1,1094.31,-2)">
                    <path d="M252,10C251.799,20.07 252.741,20.245 257.615,20.039" style="fill:none;stroke:rgb(255,184,0);stroke-width:1.94px;"/>
                </g>
                <g id="Pfeil" transform="matrix(1,0,0,1,0.00887953,-2)">
                    <g transform="matrix(1,0,0,1,564.333,0)">
                        <path d="M265,18L265,26" style="fill:none;stroke:rgb(255,184,0);stroke-width:1.94px;"/>
                    </g>
                    <g transform="matrix(1,0,0,1,564.333,0)">
                        <path d="M261,22L265,27L269,22" style="fill:none;stroke:rgb(255,184,0);stroke-width:1.94px;"/>
                    </g>
                </g>
                <g transform="matrix(1,0,0,1,564.333,0.987188)">
                    <path d="M252,11C252.667,10.333 254,9 255,9C256,9 257,11 258,11C259,11 260,9 261,9C262,9 263,11 264,11C265,11 266,9 267,9C268,9 269,11 270,11C271,11 272,9 273,9C274,9 275.211,10.795 276,11C276.611,11.159 277.358,10.539 277.731,10.23" style="fill:none;stroke:rgb(255,184,0);stroke-width:1.94px;"/>
                </g>
                <g transform="matrix(1,0,0,1,564.342,-1)">
                    <path d="M260,29L270,29" style="fill:none;stroke:rgb(255,184,0);stroke-width:1.94px;"/>
                </g>
            </g>
        </g>
    </g>
</svg>
