<?xml version="1.0" encoding="UTF-8" standalone="no"?>
<!DOCTYPE svg PUBLIC "-//W3C//DTD SVG 1.1//EN" "http://www.w3.org/Graphics/SVG/1.1/DTD/svg11.dtd">
<svg width="100%" height="100%" viewBox="0 0 30 30" version="1.1" xmlns="http://www.w3.org/2000/svg" xmlns:xlink="http://www.w3.org/1999/xlink" xml:space="preserve" xmlns:serif="http://www.serif.com/" style="fill-rule:evenodd;clip-rule:evenodd;stroke-linecap:round;stroke-linejoin:round;stroke-miterlimit:2;">
    <g transform="matrix(1,0,0,1,-150,-50)">
        <g id="Tür-Offen" serif:id="Tür Offen" transform="matrix(1,0,0,1,-902.333,50)">
            <rect x="1052.33" y="0" width="30" height="30" style="fill:none;"/>
            <g id="TürOffen-Icon" transform="matrix(1.21573,0,0,1.21573,-232.745,-3.4689)">
                <g transform="matrix(1.14347,0,0,1.41252,712.351,-8.74217)">
                    <path d="M317.122,24.242L317.122,12.099L304.945,12.075L304.997,24.242L317.122,24.242Z" style="fill:none;stroke:rgb(255,184,0);stroke-width:0.99px;"/>
                </g>
                <g transform="matrix(1.14347,0,0,1.41252,712.351,-8.74217)">
                    <path d="M304.945,12.075L310.142,9.646L322.318,9.67L317.122,12.099L304.945,12.075Z" style="fill:none;stroke:rgb(255,184,0);stroke-width:0.99px;"/>
                </g>
                <g transform="matrix(1.14347,0,0,1.41252,712.351,-8.74217)">
                    <path d="M317.122,12.099L317.122,24.242L322.318,21.813L322.318,9.67L317.122,12.099Z" style="fill:none;stroke:rgb(255,184,0);stroke-width:0.99px;"/>
                </g>
                <g transform="matrix(1.2741,0,0,1.2741,662.113,-3.92389)">
                    <circle cx="318.593" cy="17.367" r="3.234" style="fill:none;stroke:rgb(255,184,0);stroke-width:0.99px;"/>
                </g>
                <g transform="matrix(1.53248,0,0,1.31073,589.566,-4.42846)">
                    <ellipse cx="307.551" cy="17.359" rx="1.976" ry="3.141" style="stroke:rgb(255,184,0);stroke-width:0.89px;"/>
                </g>
            </g>
        </g>
    </g>
</svg>
