<?xml version="1.0" encoding="UTF-8" standalone="no"?><!DOCTYPE svg PUBLIC "-//W3C//DTD SVG 1.1//EN" "http://www.w3.org/Graphics/SVG/1.1/DTD/svg11.dtd"><svg width="100%" height="100%" viewBox="0 0 30 30" version="1.1" xmlns="http://www.w3.org/2000/svg" xmlns:xlink="http://www.w3.org/1999/xlink" xml:space="preserve" xmlns:serif="http://www.serif.com/" style="fill-rule:evenodd;clip-rule:evenodd;stroke-linecap:round;stroke-linejoin:round;stroke-miterlimit:2;"><rect id="Schleudern" x="0" y="0" width="30" height="30" style="fill:none;"/><path d="M1.383,14.669c0.038,6.131 4.89,12.681 13.615,12.642c8.608,-0.039 13.505,-3.998 13.614,-12.642c0.097,-7.728 -5.351,-11.801 -13.614,-11.67c-7.718,0.123 -9.325,8.454 -8.752,11.67c0.792,4.454 4.012,7.685 8.752,7.779c4.889,0.098 8.765,-2.984 8.752,-7.701c-0.014,-4.793 -3.792,-7.428 -8.752,-6.885c-4.109,0.449 -3.936,4.503 -3.89,5.834c0.085,2.464 1.361,3.621 3.89,3.89c1.939,0.206 3.855,-1.279 3.889,-2.917c0.038,-1.781 -2.767,-3.118 -3.889,-0.973" style="fill:none;stroke:#ffb800;stroke-width:2.08px;"/></svg>